<svg width="22" height="22" viewBox="0 0 22 22" fill="none" xmlns="http://www.w3.org/2000/svg">
<path d="M3.66667 18.3333L18.3333 18.3333C18.8396 18.3333 19.25 17.9229 19.25 17.4167L19.25 6.41667C19.25 5.91041 18.8396 5.5 18.3333 5.5L2.75 5.5L2.75 17.4167C2.75 17.9229 3.16041 18.3333 3.66667 18.3333Z" fill="#858D99"/>
<path d="M18.3333 18.3333V17.5833V18.3333ZM3.66667 18.3333L3.66667 19.0833L3.66667 18.3333ZM2.75 17.4167H3.5H2.75ZM2.75 5.5L2.75 4.75C2.55109 4.75 2.36032 4.82902 2.21967 4.96967C2.07902 5.11032 2 5.30109 2 5.5L2.75 5.5ZM19.25 6.41667L20 6.41667V6.41667L19.25 6.41667ZM19.25 17.4167H18.5H19.25ZM18.3333 5.5V4.75V5.5ZM18.3333 17.5833L3.66667 17.5833L3.66667 19.0833L18.3333 19.0833L18.3333 17.5833ZM3.5 17.4167L3.5 5.5L2 5.5L2 17.4167H3.5ZM18.5 6.41667L18.5 17.4167H20L20 6.41667L18.5 6.41667ZM2.75 6.25L18.3333 6.25V4.75L2.75 4.75L2.75 6.25ZM20 6.41667C20 5.49619 19.2538 4.75 18.3333 4.75V6.25C18.4254 6.25 18.5 6.32462 18.5 6.41667L20 6.41667ZM3.66667 17.5833C3.57462 17.5833 3.5 17.5087 3.5 17.4167H2C2 18.3371 2.74619 19.0833 3.66667 19.0833L3.66667 17.5833ZM18.3333 19.0833C19.2538 19.0833 20 18.3371 20 17.4167H18.5C18.5 17.5087 18.4254 17.5833 18.3333 17.5833L18.3333 19.0833Z" fill="#858D99"/>
<path d="M10.25 14.6667C10.25 15.0809 10.5858 15.4167 11 15.4167C11.4142 15.4167 11.75 15.0809 11.75 14.6667H10.25ZM11.75 9.16669C11.75 8.75247 11.4142 8.41669 11 8.41669C10.5858 8.41669 10.25 8.75247 10.25 9.16669H11.75ZM11.75 14.6667V9.16669H10.25V14.6667H11.75Z" fill="#0E0E10"/>
<path d="M8.25 11.1667C7.83579 11.1667 7.5 11.5025 7.5 11.9167C7.5 12.3309 7.83579 12.6667 8.25 12.6667L8.25 11.1667ZM13.75 12.6667C14.1642 12.6667 14.5 12.3309 14.5 11.9167C14.5 11.5025 14.1642 11.1667 13.75 11.1667V12.6667ZM8.25 12.6667L13.75 12.6667V11.1667L8.25 11.1667L8.25 12.6667Z" fill="#0E0E10"/>
<path d="M9.43515 3.93517L11 5.50002H2.75V4.58335C2.75 4.07709 3.16041 3.66669 3.66667 3.66669H8.78697C9.03009 3.66669 9.26324 3.76326 9.43515 3.93517Z" fill="#858D99" stroke="#858D99" stroke-width="1.5" stroke-linecap="round" stroke-linejoin="round"/>
</svg>
