<svg width="18" height="18" viewBox="0 0 18 18" fill="none" xmlns="http://www.w3.org/2000/svg">
<path d="M8.25 13.5C8.25 13.9142 8.58579 14.25 9 14.25C9.41421 14.25 9.75 13.9142 9.75 13.5H8.25ZM9.75 9C9.75 8.58579 9.41421 8.25 9 8.25C8.58579 8.25 8.25 8.58579 8.25 9H9.75ZM9.75 13.5V9H8.25V13.5H9.75Z" fill="white"/>
<path d="M6.75 10.5C6.33579 10.5 6 10.8358 6 11.25C6 11.6642 6.33579 12 6.75 12L6.75 10.5ZM11.25 12C11.6642 12 12 11.6642 12 11.25C12 10.8358 11.6642 10.5 11.25 10.5V12ZM6.75 12L11.25 12V10.5L6.75 10.5L6.75 12Z" fill="white"/>
<path d="M13.5 15.75H4.5C4.08579 15.75 3.75 15.4142 3.75 15L3.75 3C3.75 2.58579 4.08579 2.25 4.5 2.25L10.1723 2.25C10.3812 2.25 10.5807 2.33715 10.7226 2.49044L14.0503 6.08435C14.1787 6.22298 14.25 6.40496 14.25 6.5939L14.25 15C14.25 15.4142 13.9142 15.75 13.5 15.75Z" stroke="white" stroke-width="1.5" stroke-linecap="round" stroke-linejoin="round"/>
<path d="M14.25 6.75L10.5 6.75C10.0858 6.75 9.75 6.41421 9.75 6L9.75 2.25" stroke="white" stroke-width="1.5" stroke-linecap="round" stroke-linejoin="round"/>
</svg>
