<svg width="20" height="20" viewBox="0 0 20 20" fill="none" xmlns="http://www.w3.org/2000/svg">
<path d="M11.6667 13.3334H15.8334V17.5001" stroke="white" stroke-width="1.5" stroke-linecap="round" stroke-linejoin="round"/>
<path d="M3.81873 12.4974C4.28596 13.6539 5.06825 14.6561 6.07668 15.3901C7.0851 16.1241 8.27922 16.5605 9.5233 16.6497C10.7674 16.7388 12.0115 16.4772 13.1143 15.8945C14.2171 15.3119 15.1344 14.4315 15.7618 13.3535" stroke="white" stroke-width="1.5" stroke-linecap="round" stroke-linejoin="round"/>
<path d="M8.33341 6.66667H4.16675V2.5" stroke="white" stroke-width="1.5" stroke-linecap="round" stroke-linejoin="round"/>
<path d="M16.1813 7.5027C15.7141 6.34624 14.9318 5.34406 13.9234 4.61005C12.915 3.87604 11.7208 3.43965 10.4768 3.35047C9.23268 3.26129 7.98853 3.52291 6.88572 4.10558C5.78292 4.68826 4.86569 5.56862 4.23828 6.64661" stroke="white" stroke-width="1.5" stroke-linecap="round" stroke-linejoin="round"/>
</svg>
