<svg width="20" height="20" viewBox="0 0 20 20" fill="none" xmlns="http://www.w3.org/2000/svg">
<path d="M11.6667 12.5835C11.2525 12.5835 10.9167 12.9193 10.9167 13.3335C10.9167 13.7477 11.2525 14.0835 11.6667 14.0835V12.5835ZM15.8334 13.3335H16.5834C16.5834 12.9193 16.2476 12.5835 15.8334 12.5835V13.3335ZM15.0834 17.5002C15.0834 17.9144 15.4192 18.2502 15.8334 18.2502C16.2476 18.2502 16.5834 17.9144 16.5834 17.5002H15.0834ZM11.6667 14.0835H15.8334V12.5835H11.6667V14.0835ZM15.0834 13.3335V17.5002H16.5834V13.3335H15.0834Z" fill="#858D99"/>
<path d="M3.81885 12.4973C4.28608 13.6538 5.06837 14.656 6.0768 15.39C7.08523 16.124 8.27934 16.5604 9.52342 16.6495C10.7675 16.7387 12.0117 16.4771 13.1145 15.8944C14.2173 15.3118 15.1345 14.4314 15.7619 13.3534" stroke="#858D99" stroke-width="1.5" stroke-linecap="round" stroke-linejoin="round"/>
<path d="M8.33341 7.41667C8.74763 7.41667 9.08341 7.08088 9.08341 6.66667C9.08341 6.25245 8.74763 5.91667 8.33341 5.91667V7.41667ZM4.16675 6.66667H3.41675C3.41675 7.08088 3.75253 7.41667 4.16675 7.41667V6.66667ZM4.91675 2.5C4.91675 2.08579 4.58096 1.75 4.16675 1.75C3.75253 1.75 3.41675 2.08579 3.41675 2.5H4.91675ZM8.33341 5.91667H4.16675V7.41667H8.33341V5.91667ZM4.91675 6.66667V2.5H3.41675V6.66667H4.91675Z" fill="#858D99"/>
<path d="M16.1813 7.50279C15.7141 6.34634 14.9318 5.34415 13.9234 4.61014C12.915 3.87613 11.7208 3.43974 10.4768 3.35056C9.23268 3.26138 7.98853 3.523 6.88572 4.10567C5.78292 4.68835 4.86569 5.56871 4.23828 6.6467" stroke="#858D99" stroke-width="1.5" stroke-linecap="round" stroke-linejoin="round"/>
</svg>
