<svg width="18" height="18" viewBox="0 0 18 18" fill="none" xmlns="http://www.w3.org/2000/svg">
<path d="M3.21967 6.53033C2.92678 6.23744 2.92678 5.76256 3.21967 5.46967C3.51256 5.17678 3.98744 5.17678 4.28033 5.46967L3.21967 6.53033ZM9 11.25L9.53033 11.7803C9.23744 12.0732 8.76256 12.0732 8.46967 11.7803L9 11.25ZM13.7197 5.46967C14.0126 5.17678 14.4874 5.17678 14.7803 5.46967C15.0732 5.76256 15.0732 6.23744 14.7803 6.53033L13.7197 5.46967ZM4.28033 5.46967L9.53033 10.7197L8.46967 11.7803L3.21967 6.53033L4.28033 5.46967ZM8.46967 10.7197L13.7197 5.46967L14.7803 6.53033L9.53033 11.7803L8.46967 10.7197Z" fill="#858D99"/>
</svg>
