<svg width="18" height="18" viewBox="0 0 18 18" fill="none" xmlns="http://www.w3.org/2000/svg">
<path d="M4.5 4.5V3.75C4.08579 3.75 3.75 4.08579 3.75 4.5H4.5ZM13.5 4.5H14.25C14.25 4.08579 13.9142 3.75 13.5 3.75V4.5ZM4.5 5.25H13.5V3.75H4.5V5.25ZM12.75 4.5V15H14.25V4.5H12.75ZM12.75 15H5.25V16.5H12.75V15ZM5.25 15V4.5H3.75V15H5.25ZM5.25 15H5.25H3.75C3.75 15.8284 4.42157 16.5 5.25 16.5V15ZM12.75 15V16.5C13.5784 16.5 14.25 15.8284 14.25 15H12.75Z" fill="#858D99"/>
<path d="M3 4.5H15" stroke="#858D99" stroke-width="1.5" stroke-linecap="round" stroke-linejoin="round"/>
<path d="M12 4.5V5.25C12.4142 5.25 12.75 4.91421 12.75 4.5H12ZM6 4.5H5.25C5.25 4.91421 5.58579 5.25 6 5.25V4.5ZM6.75 3H11.25V1.5H6.75V3ZM11.25 3V4.5H12.75V3H11.25ZM12 3.75H6V5.25H12V3.75ZM6.75 4.5V3H5.25V4.5H6.75ZM11.25 3H12.75C12.75 2.17157 12.0784 1.5 11.25 1.5V3ZM6.75 1.5C5.92157 1.5 5.25 2.17157 5.25 3H6.75V3V1.5Z" fill="#858D99"/>
</svg>
