<svg width="20" height="20" viewBox="0 0 20 20" fill="none" xmlns="http://www.w3.org/2000/svg">
<path d="M3.33325 16.6667H16.6666" stroke="#858D99" stroke-width="1.5" stroke-linecap="round" stroke-linejoin="round"/>
<path d="M6.66659 16.6666V17.4166C6.8655 17.4166 7.05626 17.3376 7.19692 17.197L6.66659 16.6666ZM3.33325 16.6666H2.58325C2.58325 17.0808 2.91904 17.4166 3.33325 17.4166V16.6666ZM3.33325 13.3333L2.80292 12.803C2.66227 12.9436 2.58325 13.1344 2.58325 13.3333H3.33325ZM12.744 3.92254L13.2743 4.45287V4.45287L12.744 3.92254ZM13.9225 3.92254L13.3922 4.45287V4.45287L13.9225 3.92254ZM16.0773 6.07737L16.6077 5.54704V5.54704L16.0773 6.07737ZM16.0773 7.25588L15.547 6.72555L16.0773 7.25588ZM6.66659 15.9166H3.33325V17.4166H6.66659V15.9166ZM4.08325 16.6666V13.3333H2.58325V16.6666H4.08325ZM3.86358 13.8636L13.2743 4.45287L12.2137 3.39221L2.80292 12.803L3.86358 13.8636ZM13.3922 4.45287L15.547 6.6077L16.6077 5.54704L14.4528 3.39221L13.3922 4.45287ZM15.547 6.72555L6.13626 16.1363L7.19692 17.197L16.6077 7.78621L15.547 6.72555ZM15.547 6.6077C15.5795 6.64024 15.5795 6.693 15.547 6.72555L16.6077 7.78621C17.226 7.16788 17.226 6.16537 16.6077 5.54704L15.547 6.6077ZM13.2743 4.45287C13.3069 4.42033 13.3596 4.42033 13.3922 4.45287L14.4528 3.39221C13.8345 2.77388 12.832 2.77388 12.2137 3.39221L13.2743 4.45287Z" fill="#858D99"/>
</svg>
