<svg width="18" height="18" viewBox="0 0 18 18" fill="none" xmlns="http://www.w3.org/2000/svg">
<path d="M3 15L15 15C15.4142 15 15.75 14.6642 15.75 14.25L15.75 5.25C15.75 4.83579 15.4142 4.5 15 4.5L2.25 4.5L2.25 14.25C2.25 14.6642 2.58579 15 3 15Z" fill="#858D99"/>
<path d="M15 15V14.25V15ZM3 15L3 15.75L3 15ZM2.25 14.25H3H2.25ZM2.25 4.5L2.25 3.75C2.05109 3.75 1.86032 3.82902 1.71967 3.96967C1.57902 4.11032 1.5 4.30109 1.5 4.5L2.25 4.5ZM15 4.5V3.75V4.5ZM15.75 5.25L16.5 5.25V5.25L15.75 5.25ZM15.75 14.25H15H15.75ZM15 14.25L3 14.25L3 15.75L15 15.75L15 14.25ZM3 14.25L3 4.5L1.5 4.5L1.5 14.25H3ZM2.25 5.25L15 5.25V3.75L2.25 3.75L2.25 5.25ZM15 5.25V5.25L16.5 5.25C16.5 4.42157 15.8284 3.75 15 3.75V5.25ZM3 14.25H1.5C1.5 15.0784 2.17157 15.75 3 15.75L3 14.25ZM15 15.75C15.8284 15.75 16.5 15.0784 16.5 14.25H15L15 15.75ZM15 5.25L15 14.25H16.5L16.5 5.25L15 5.25Z" fill="#858D99"/>
<path d="M7.71967 3.21967L9 4.5H2.25V3.75C2.25 3.33579 2.58579 3 3 3H7.18934C7.38825 3 7.57902 3.07902 7.71967 3.21967Z" fill="#858D99" stroke="#858D99" stroke-width="1.5" stroke-linecap="round" stroke-linejoin="round"/>
</svg>
