<svg width="18" height="18" viewBox="0 0 18 18" fill="none" xmlns="http://www.w3.org/2000/svg">
<path d="M15.75 15.75C16.1642 15.75 16.5 15.4142 16.5 15C16.5 14.5858 16.1642 14.25 15.75 14.25V15.75ZM3 15L3 14.25H3V15ZM2.25 4.5V3.75C1.83579 3.75 1.5 4.08579 1.5 4.5H2.25ZM15 9.75C15 10.1642 15.3358 10.5 15.75 10.5C16.1642 10.5 16.5 10.1642 16.5 9.75H15ZM15.75 14.25L3 14.25L3 15.75L15.75 15.75V14.25ZM3 14.25V4.5H1.5V14.25H3ZM2.25 5.25H15V3.75H2.25V5.25ZM15 5.25V9.75H16.5V5.25H15ZM15 5.25H16.5C16.5 4.42157 15.8284 3.75 15 3.75V5.25ZM3 14.25H3H1.5C1.5 15.0784 2.17157 15.75 3 15.75V14.25Z" fill="#858D99"/>
<path d="M3.24429 15L15.1843 15C15.5191 15 15.8134 14.778 15.9054 14.456L16.9768 10.706C17.1137 10.2269 16.754 9.75 16.2557 9.75L3.74999 9.75L2.52315 14.044C2.38626 14.5231 2.74601 15 3.24429 15Z" fill="#858D99"/>
<path d="M15.1843 15V15.75V15ZM3.24429 15L3.24429 14.25L3.24429 15ZM2.52315 14.044L3.24429 14.25L3.24429 14.25L2.52315 14.044ZM3.74999 9.75V9C3.41513 9 3.12084 9.22198 3.02885 9.54396L3.74999 9.75ZM16.9768 10.706L16.2557 10.5V10.5L16.9768 10.706ZM15.9054 14.456L16.6266 14.6621L15.9054 14.456ZM16.2557 9.75V9V9.75ZM15.1843 14.25L3.24429 14.25L3.24429 15.75L15.1843 15.75V14.25ZM3.24429 14.25L4.47114 9.95604L3.02885 9.54396L1.80201 13.8379L3.24429 14.25ZM16.2557 10.5L15.1843 14.25L16.6266 14.6621L17.698 10.9121L16.2557 10.5ZM3.74999 10.5H16.2557V9H3.74999V10.5ZM17.698 10.9121C17.9718 9.95386 17.2523 9 16.2557 9V10.5V10.5L17.698 10.9121ZM3.24429 14.25L3.24429 14.25L1.80201 13.8379C1.52823 14.7961 2.24772 15.75 3.24429 15.75L3.24429 14.25ZM15.1843 15.75C15.854 15.75 16.4426 15.306 16.6266 14.6621L15.1843 14.25L15.1843 14.25V15.75Z" fill="#858D99"/>
<path d="M7.71967 3.21967L9 4.5H2.25V3.75C2.25 3.33579 2.58579 3 3 3H7.18934C7.38825 3 7.57902 3.07902 7.71967 3.21967Z" fill="#858D99" stroke="#858D99" stroke-width="1.5" stroke-linecap="round" stroke-linejoin="round"/>
</svg>
