<svg width="142" height="20" viewBox="0 0 142 20" fill="none" xmlns="http://www.w3.org/2000/svg">
<path d="M0 16.4045V0.674157H6.16994C8.64093 0.674157 10.6599 1.42322 12.2269 2.92135C13.7939 4.40449 14.5773 6.27715 14.5773 8.53932C14.5773 10.7865 13.7863 12.6592 12.2043 14.1573C10.6373 15.6554 8.62586 16.4045 6.16994 16.4045H0ZM3.48048 13.2809H6.16994C7.60131 13.2809 8.75394 12.8464 9.62782 11.9775C10.5017 11.0936 10.9387 9.94757 10.9387 8.53932C10.9387 7.14607 10.4942 6.00749 9.60522 5.12359C8.73133 4.2397 7.58624 3.79775 6.16994 3.79775H3.48048V13.2809Z" fill="white"/>
<path d="M20.7524 16.6292C19.5621 16.6292 18.5677 16.2996 17.7691 15.6404C16.9856 14.9813 16.5939 14.0674 16.5939 12.8989C16.5939 11.6255 17.0308 10.6667 17.9047 10.0225C18.7937 9.37828 19.984 9.05618 21.4756 9.05618C22.4851 9.05618 23.472 9.22097 24.4363 9.55056V9.34831C24.4363 7.88015 23.5699 7.14607 21.8372 7.14607C20.7976 7.14607 19.6826 7.3633 18.4923 7.79775L17.6335 5.19101C19.1101 4.54682 20.6771 4.22472 22.3344 4.22472C24.1575 4.22472 25.5211 4.67416 26.4251 5.57303C27.299 6.44195 27.736 7.72285 27.736 9.41573V16.4045H24.4137V15.1011C23.4946 16.1198 22.2742 16.6292 20.7524 16.6292ZM21.792 14.2697C22.5906 14.2697 23.2385 14.0749 23.7357 13.6854C24.2329 13.2809 24.4815 12.7715 24.4815 12.1573V11.5506C23.8336 11.2509 23.1028 11.1011 22.2892 11.1011C21.5359 11.1011 20.9483 11.2509 20.5264 11.5506C20.1196 11.8352 19.9162 12.2547 19.9162 12.809C19.9162 13.2584 20.0894 13.618 20.436 13.8876C20.7825 14.1423 21.2345 14.2697 21.792 14.2697Z" fill="white"/>
<path d="M30.692 20V4.35955H34.1273V6.08989C35.0916 4.78652 36.3497 4.13483 37.9016 4.13483C39.4083 4.13483 40.7041 4.69663 41.7889 5.82022C42.8737 6.94382 43.4161 8.47191 43.4161 10.4045C43.4161 12.3221 42.8737 13.8427 41.7889 14.9663C40.7191 16.0749 39.4234 16.6292 37.9016 16.6292C36.3949 16.6292 35.1368 16.03 34.1273 14.8315V20H30.692ZM34.9183 12.809C35.4909 13.4232 36.1915 13.7303 37.0202 13.7303C37.8489 13.7303 38.5495 13.4232 39.122 12.809C39.6946 12.1798 39.9808 11.3633 39.9808 10.3595C39.9808 9.38577 39.6946 8.59176 39.122 7.97753C38.5495 7.34831 37.8489 7.03371 37.0202 7.03371C36.1915 7.03371 35.4909 7.34831 34.9183 7.97753C34.3609 8.59176 34.0821 9.40075 34.0821 10.4045C34.0821 11.3783 34.3609 12.1798 34.9183 12.809Z" fill="white"/>
<path d="M45.943 20V4.35955H49.3782V6.08989C50.3425 4.78652 51.6006 4.13483 53.1525 4.13483C54.6592 4.13483 55.955 4.69663 57.0398 5.82022C58.1246 6.94382 58.6671 8.47191 58.6671 10.4045C58.6671 12.3221 58.1246 13.8427 57.0398 14.9663C55.9701 16.0749 54.6743 16.6292 53.1525 16.6292C51.6458 16.6292 50.3877 16.03 49.3782 14.8315V20H45.943ZM50.1693 12.809C50.7418 13.4232 51.4424 13.7303 52.2711 13.7303C53.0998 13.7303 53.8004 13.4232 54.373 12.809C54.9455 12.1798 55.2318 11.3633 55.2318 10.3595C55.2318 9.38577 54.9455 8.59176 54.373 7.97753C53.8004 7.34831 53.0998 7.03371 52.2711 7.03371C51.4424 7.03371 50.7418 7.34831 50.1693 7.97753C49.6118 8.59176 49.333 9.40075 49.333 10.4045C49.333 11.3783 49.6118 12.1798 50.1693 12.809Z" fill="white"/>
<path d="M61.5555 16.4045V0.674157H68.7877C70.7916 0.674157 72.3284 1.20599 73.3982 2.26966C74.3022 3.16854 74.7542 4.38202 74.7542 5.91011C74.7542 8.3221 73.6242 9.94757 71.3641 10.7865L75.2288 16.4045H71.1607L67.7255 11.3708H65.036V16.4045H61.5555ZM65.036 8.31461H68.5617C69.4054 8.31461 70.0608 8.11236 70.5279 7.70786C70.995 7.28839 71.2285 6.73408 71.2285 6.04494C71.2285 5.31086 70.9875 4.75655 70.5053 4.38202C70.0232 3.99251 69.3527 3.79775 68.4939 3.79775H65.036V8.31461Z" fill="white"/>
<path d="M83.0461 16.6742C81.208 16.6742 79.6937 16.0974 78.5034 14.9438C77.3131 13.7753 76.718 12.2622 76.718 10.4045C76.718 8.65168 77.283 7.16854 78.413 5.95506C79.5431 4.74157 80.9744 4.13483 82.7071 4.13483C84.6206 4.13483 86.0821 4.76404 87.0916 6.02247C88.1011 7.2809 88.6059 8.83146 88.6059 10.6742C88.6059 10.8539 88.5908 11.1536 88.5607 11.573H80.1307C80.2964 12.3371 80.6354 12.9213 81.1477 13.3258C81.66 13.7303 82.3079 13.9326 83.0913 13.9326C84.1611 13.9326 85.1405 13.5206 86.0294 12.6966L87.9957 14.427C86.7752 15.9251 85.1254 16.6742 83.0461 16.6742ZM80.0855 9.4382H85.261C85.1555 8.65918 84.8768 8.03745 84.4248 7.57303C83.9878 7.10861 83.4153 6.8764 82.7071 6.8764C82.014 6.8764 81.434 7.10861 80.9669 7.57303C80.5149 8.02247 80.2211 8.64419 80.0855 9.4382Z" fill="white"/>
<path d="M94.6014 16.6292C93.4111 16.6292 92.4166 16.2996 91.6181 15.6404C90.8346 14.9813 90.4429 14.0674 90.4429 12.8989C90.4429 11.6255 90.8798 10.6667 91.7537 10.0225C92.6427 9.37828 93.8329 9.05618 95.3246 9.05618C96.3341 9.05618 97.321 9.22097 98.2852 9.55056V9.34831C98.2852 7.88015 97.4189 7.14607 95.6862 7.14607C94.6466 7.14607 93.5316 7.3633 92.3413 7.79775L91.4825 5.19101C92.9591 4.54682 94.526 4.22472 96.1834 4.22472C98.0065 4.22472 99.3701 4.67416 100.274 5.57303C101.148 6.44195 101.585 7.72285 101.585 9.41573V16.4045H98.2626V15.1011C97.3436 16.1198 96.1231 16.6292 94.6014 16.6292ZM95.641 14.2697C96.4395 14.2697 97.0874 14.0749 97.5846 13.6854C98.0818 13.2809 98.3304 12.7715 98.3304 12.1573V11.5506C97.6826 11.2509 96.9518 11.1011 96.1382 11.1011C95.3848 11.1011 94.7972 11.2509 94.3754 11.5506C93.9685 11.8352 93.7651 12.2547 93.7651 12.809C93.7651 13.2584 93.9384 13.618 94.285 13.8876C94.6315 14.1423 95.0835 14.2697 95.641 14.2697Z" fill="white"/>
<path d="M109.513 16.6292C108.006 16.6292 106.711 16.0674 105.626 14.9438C104.541 13.8202 103.999 12.2921 103.999 10.3595C103.999 8.44195 104.533 6.92884 105.603 5.82022C106.688 4.69663 107.991 4.13483 109.513 4.13483C111.02 4.13483 112.278 4.73408 113.287 5.93258V0H116.723V16.4045H113.287V14.6742C112.323 15.9775 111.065 16.6292 109.513 16.6292ZM108.293 12.809C108.865 13.4232 109.566 13.7303 110.395 13.7303C111.223 13.7303 111.916 13.4232 112.474 12.809C113.046 12.1798 113.333 11.3633 113.333 10.3595C113.333 9.38577 113.046 8.59176 112.474 7.97753C111.916 7.34831 111.223 7.03371 110.395 7.03371C109.566 7.03371 108.865 7.34831 108.293 7.97753C107.72 8.59176 107.434 9.40075 107.434 10.4045C107.434 11.3783 107.72 12.1798 108.293 12.809Z" fill="white"/>
<path d="M125.532 16.6742C123.694 16.6742 122.18 16.0974 120.99 14.9438C119.799 13.7753 119.204 12.2622 119.204 10.4045C119.204 8.65168 119.769 7.16854 120.899 5.95506C122.029 4.74157 123.461 4.13483 125.193 4.13483C127.107 4.13483 128.568 4.76404 129.578 6.02247C130.587 7.2809 131.092 8.83146 131.092 10.6742C131.092 10.8539 131.077 11.1536 131.047 11.573H122.617C122.783 12.3371 123.122 12.9213 123.634 13.3258C124.146 13.7303 124.794 13.9326 125.578 13.9326C126.647 13.9326 127.627 13.5206 128.516 12.6966L130.482 14.427C129.262 15.9251 127.612 16.6742 125.532 16.6742ZM122.572 9.4382H127.747C127.642 8.65918 127.363 8.03745 126.911 7.57303C126.474 7.10861 125.902 6.8764 125.193 6.8764C124.5 6.8764 123.92 7.10861 123.453 7.57303C123.001 8.02247 122.707 8.64419 122.572 9.4382Z" fill="white"/>
<path d="M133.652 16.4045V4.35955H137.088V6.78652C137.871 4.94382 139.159 4.05993 140.952 4.13483V7.70786H140.772C139.596 7.70786 138.685 8.06742 138.037 8.78652C137.404 9.49064 137.088 10.5468 137.088 11.9551V16.4045H133.652Z" fill="white"/>
</svg>
