<svg width="24" height="24" viewBox="0 0 24 24" fill="none" xmlns="http://www.w3.org/2000/svg">
<path d="M4 20L20 20C20.5523 20 21 19.5523 21 19L21 5C21 4.44771 20.5523 4 20 4L4 4C3.44772 4 3 4.44772 3 5L3 19C3 19.5523 3.44772 20 4 20Z" stroke="white" stroke-width="1.5" stroke-linecap="round" stroke-linejoin="round"/>
<path d="M14.5303 10.4697C14.2374 10.1768 13.7626 10.1768 13.4697 10.4697C13.1768 10.7626 13.1768 11.2374 13.4697 11.5303L14.5303 10.4697ZM16 13L16.5303 13.5303C16.8232 13.2374 16.8232 12.7626 16.5303 12.4697L16 13ZM13.4697 14.4697C13.1768 14.7626 13.1768 15.2374 13.4697 15.5303C13.7626 15.8232 14.2374 15.8232 14.5303 15.5303L13.4697 14.4697ZM13.4697 11.5303L15.4697 13.5303L16.5303 12.4697L14.5303 10.4697L13.4697 11.5303ZM15.4697 12.4697L13.4697 14.4697L14.5303 15.5303L16.5303 13.5303L15.4697 12.4697Z" fill="white"/>
<path d="M9.46967 15.5303C9.76256 15.8232 10.2374 15.8232 10.5303 15.5303C10.8232 15.2374 10.8232 14.7626 10.5303 14.4697L9.46967 15.5303ZM8 13L7.46967 12.4697C7.32902 12.6103 7.25 12.8011 7.25 13C7.25 13.1989 7.32902 13.3897 7.46967 13.5303L8 13ZM10.5303 11.5303C10.8232 11.2374 10.8232 10.7626 10.5303 10.4697C10.2374 10.1768 9.76256 10.1768 9.46967 10.4697L10.5303 11.5303ZM10.5303 14.4697L8.53033 12.4697L7.46967 13.5303L9.46967 15.5303L10.5303 14.4697ZM8.53033 13.5303L10.5303 11.5303L9.46967 10.4697L7.46967 12.4697L8.53033 13.5303Z" fill="white"/>
<path d="M21 6L3 6V5H21V6Z" stroke="white" stroke-width="1.5" stroke-linecap="round" stroke-linejoin="round"/>
</svg>
