<svg width="20" height="20" viewBox="0 0 20 20" fill="none" xmlns="http://www.w3.org/2000/svg">
<path d="M15 17.5C16.3807 17.5 17.5 16.3807 17.5 15C17.5 13.6193 16.3807 12.5 15 12.5C13.6193 12.5 12.5 13.6193 12.5 15C12.5 16.3807 13.6193 17.5 15 17.5Z" stroke="#858D99" stroke-width="1.5" stroke-linecap="round" stroke-linejoin="round"/>
<path d="M7.5 11.25L12.5 13.75" stroke="#858D99" stroke-width="1.5" stroke-linecap="round" stroke-linejoin="round"/>
<path d="M5 12.5C6.38071 12.5 7.5 11.3807 7.5 10C7.5 8.61929 6.38071 7.5 5 7.5C3.61929 7.5 2.5 8.61929 2.5 10C2.5 11.3807 3.61929 12.5 5 12.5Z" stroke="#858D99" stroke-width="1.5" stroke-linecap="round" stroke-linejoin="round"/>
<path d="M12.5 6.25L7.5 8.75" stroke="#858D99" stroke-width="1.5" stroke-linecap="round" stroke-linejoin="round"/>
<path d="M15 7.5C16.3807 7.5 17.5 6.38071 17.5 5C17.5 3.61929 16.3807 2.5 15 2.5C13.6193 2.5 12.5 3.61929 12.5 5C12.5 6.38071 13.6193 7.5 15 7.5Z" stroke="#858D99" stroke-width="1.5" stroke-linecap="round" stroke-linejoin="round"/>
</svg>
