<svg width="20" height="20" viewBox="0 0 20 20" fill="none" xmlns="http://www.w3.org/2000/svg">
<g clip-path="url(#clip0_1338_33656)">
<path d="M4.42368 9.54402C4.42366 9.4374 4.44471 9.33183 4.48561 9.23338C4.52651 9.13492 4.58646 9.04551 4.66202 8.97029C4.73758 8.89508 4.82725 8.83553 4.92589 8.79507C5.02453 8.75461 5.13019 8.73403 5.23681 8.73453L6.58489 8.73895C6.79984 8.73895 7.00598 8.82434 7.15798 8.97633C7.30997 9.12832 7.39535 9.33447 7.39535 9.54941V14.647C7.54721 14.602 7.74198 14.554 7.95534 14.504C8.10348 14.4691 8.23551 14.3852 8.33001 14.266C8.42451 14.1467 8.47596 13.9989 8.47599 13.8467V7.52361C8.47598 7.30864 8.56135 7.10247 8.71334 6.95044C8.86533 6.79841 9.07149 6.71299 9.28646 6.71295H10.6373C10.8522 6.71301 11.0584 6.79844 11.2104 6.95046C11.3624 7.10248 11.4477 7.30865 11.4477 7.52361V13.3923C11.4477 13.3923 11.7858 13.2554 12.1153 13.1164C12.2377 13.0646 12.3421 12.978 12.4155 12.8673C12.489 12.7565 12.5282 12.6266 12.5283 12.4938V5.4971C12.5283 5.39067 12.5493 5.28529 12.59 5.18697C12.6307 5.08864 12.6904 4.9993 12.7656 4.92404C12.8409 4.84878 12.9302 4.78908 13.0285 4.74835C13.1268 4.70761 13.2322 4.68664 13.3386 4.68664H14.6895C14.9044 4.68664 15.1106 4.77202 15.2626 4.92401C15.4146 5.076 15.5 5.28214 15.5 5.4971V11.2585C16.6711 10.4098 17.8579 9.38897 18.7998 8.16154C18.9364 7.98337 19.0268 7.77415 19.063 7.55254C19.0991 7.33092 19.0798 7.10381 19.0068 6.89147C18.3695 5.03425 17.1742 3.4192 15.5842 2.26714C13.9941 1.11509 12.0871 0.482273 10.1238 0.455219C4.82953 0.384099 0.454116 4.70581 0.454636 10.0007C0.449437 11.6762 0.886733 13.3233 1.72231 14.7756C1.83754 14.9742 2.00706 15.1359 2.21097 15.2415C2.41487 15.3471 2.64469 15.3924 2.87341 15.3719C3.12896 15.3494 3.44712 15.3176 3.82534 15.2732C3.98996 15.2545 4.14194 15.1759 4.25234 15.0523C4.36274 14.9288 4.42384 14.7689 4.424 14.6033V9.54402" fill="#858D99"/>
<path d="M4.39435 17.7193C5.81817 18.7551 7.50077 19.3769 9.25599 19.5157C11.0112 19.6546 12.7707 19.3052 14.3396 18.5062C15.9086 17.7072 17.226 16.4898 18.146 14.9886C19.066 13.4873 19.5528 11.7609 19.5526 10.0001C19.5526 9.78035 19.5424 9.56303 19.5277 9.34688C16.0405 14.5476 9.60174 16.9792 4.39429 17.7195" fill="#858D99" fill-opacity="0.5"/>
</g>
<defs>
<clipPath id="clip0_1338_33656">
<rect width="20" height="20" fill="white"/>
</clipPath>
</defs>
</svg>
