<svg width="16" height="16" viewBox="0 0 16 16" fill="none" xmlns="http://www.w3.org/2000/svg">
<g clip-path="url(#clip0_1478_28623)">
<path d="M3.47604 7.54717C3.47603 7.46073 3.49309 7.37513 3.52625 7.29531C3.55941 7.21548 3.60802 7.143 3.66928 7.08201C3.73054 7.02103 3.80324 6.97275 3.88322 6.93994C3.96319 6.90714 4.04886 6.89046 4.13529 6.89086L5.22827 6.89445C5.40254 6.89445 5.56968 6.96368 5.6929 7.08691C5.81613 7.21013 5.88536 7.37727 5.88536 7.55154V11.6845C6.00848 11.648 6.16639 11.6091 6.33938 11.5685C6.45949 11.5403 6.56653 11.4722 6.64315 11.3755C6.71977 11.2788 6.76147 11.159 6.7615 11.0357V5.9091C6.76149 5.73481 6.83071 5.56765 6.95394 5.44439C7.07716 5.32114 7.24431 5.25188 7.4186 5.25185H8.51379C8.68807 5.25189 8.85521 5.32115 8.97843 5.44441C9.10166 5.56766 9.17088 5.73481 9.17088 5.9091V10.6672C9.17088 10.6672 9.44495 10.5562 9.71212 10.4435C9.81133 10.4015 9.89599 10.3313 9.95553 10.2415C10.0151 10.1518 10.0469 10.0464 10.047 9.93873V4.26608C10.047 4.17979 10.0639 4.09435 10.097 4.01463C10.13 3.93492 10.1784 3.86248 10.2394 3.80146C10.3004 3.74045 10.3728 3.69204 10.4525 3.65902C10.5322 3.62599 10.6177 3.60899 10.704 3.60898H11.7991C11.9734 3.60898 12.1406 3.67821 12.2638 3.80144C12.387 3.92467 12.4563 4.0918 12.4563 4.26608V8.9372C13.4057 8.24911 14.368 7.42146 15.1316 6.42631C15.2424 6.28185 15.3157 6.11222 15.345 5.93255C15.3743 5.75287 15.3587 5.56874 15.2995 5.39658C14.7828 3.89082 13.8137 2.5814 12.5245 1.64735C11.2354 0.713313 9.68925 0.200249 8.09746 0.178314C3.80509 0.120653 0.257672 3.62453 0.258094 7.91743C0.253879 9.27584 0.608422 10.6113 1.28587 11.7887C1.3793 11.9498 1.51674 12.0808 1.68206 12.1665C1.84738 12.2521 2.0337 12.2888 2.21915 12.2722C2.42634 12.254 2.68428 12.2282 2.99093 12.1922C3.1244 12.177 3.24762 12.1133 3.33713 12.0131C3.42663 11.9129 3.47617 11.7833 3.4763 11.649V7.54717" fill="white"/>
<path d="M3.4522 14.1755C4.60658 15.0153 5.97076 15.5194 7.39383 15.632C8.81691 15.7446 10.2434 15.4613 11.5155 14.8135C12.7875 14.1657 13.8556 13.1786 14.6015 11.9615C15.3474 10.7444 15.7421 9.34462 15.7419 7.9171C15.7419 7.7389 15.7336 7.5627 15.7217 7.38745C12.8944 11.604 7.67415 13.5755 3.45215 14.1757" fill="#BFCFDA"/>
</g>
<defs>
<clipPath id="clip0_1478_28623">
<rect width="16" height="16" fill="white"/>
</clipPath>
</defs>
</svg>
