<svg width="70" height="70" viewBox="0 0 70 70" fill="none" xmlns="http://www.w3.org/2000/svg">
<path d="M35 61.25C49.4975 61.25 61.25 49.4975 61.25 35C61.25 20.5025 49.4975 8.75 35 8.75C20.5025 8.75 8.75 20.5025 8.75 35C8.75 49.4975 20.5025 61.25 35 61.25Z" fill="#43C465"/>
<path d="M44.9101 30.3261C45.5508 29.6854 45.5508 28.6466 44.9101 28.0059C44.2694 27.3652 43.2306 27.3652 42.5899 28.0059L44.9101 30.3261ZM32.0833 40.8327L30.9232 41.9928C31.5639 42.6335 32.6027 42.6335 33.2434 41.9928L32.0833 40.8327ZM27.4101 33.8393C26.7694 33.1985 25.7306 33.1985 25.0899 33.8393C24.4492 34.48 24.4492 35.5187 25.0899 36.1594L27.4101 33.8393ZM42.5899 28.0059L30.9232 39.6726L33.2434 41.9928L44.9101 30.3261L42.5899 28.0059ZM33.2434 39.6726L27.4101 33.8393L25.0899 36.1594L30.9232 41.9928L33.2434 39.6726Z" fill="white"/>
</svg>
