<svg width="34" height="34" viewBox="0 0 34 34" fill="none" xmlns="http://www.w3.org/2000/svg">
<g clip-path="url(#clip0_1722_35329)">
<rect width="34" height="34" rx="17" fill="#2C2D34"/>
<path d="M9.702 11.5722C9.36206 12.592 9.84365 14.83 10.1269 15.8215C6 14.5 9.5 22 11.8266 20.9206C12.2516 22.6203 12.2516 23.4702 12.2516 24.3201C11.4017 24.3201 8.42721 26.0198 8.00228 26.8696C7.32239 26.8696 6.44421 27.4362 6.30256 27.7195L4.60284 28.1444L15.2261 34.9433C19.7587 33.3852 28.7388 30.0141 28.3989 28.9943C27.974 27.7195 26.6992 26.8696 25.8493 26.8696C25.566 26.4447 24.8295 25.6798 24.1496 26.0198C24.1496 25.3399 22.1666 24.8866 21.1751 24.745C21.6 23.8952 22.025 23.0453 22.4499 21.3456C24.1496 20.4957 25.5 16.5 23.2997 16.6713C23.7247 15.8215 24.9995 11.9972 24.1496 9.8725C23.4438 8.10807 20.3252 5.62302 16.5009 6.04809C12.2516 6.52038 10.1269 10.2974 9.702 11.5722Z" fill="#525360"/>
<path d="M10.0621 16.0238L10.4403 16.1449L10.3312 15.7631C10.1918 15.2751 10.0029 14.4775 9.89118 13.678C9.83534 13.2784 9.79932 12.8821 9.79761 12.5259C9.79589 12.1668 9.82923 11.8624 9.90357 11.6394C10.1062 11.0314 10.7273 9.79586 11.8206 8.65628C12.9111 7.51963 14.4613 6.48855 16.5243 6.25925C18.384 6.05256 20.0743 6.55315 21.3873 7.32254C22.7063 8.09546 23.6221 9.12585 23.9523 9.95141C24.3527 10.9524 24.2588 12.3864 23.9944 13.7083C23.7315 15.0226 23.3117 16.1722 23.1097 16.5763L22.9417 16.9123L23.3162 16.8831C23.5606 16.8641 23.7362 16.9043 23.8616 16.9739C23.9852 17.0425 24.0768 17.1489 24.139 17.2937C24.268 17.5941 24.2644 18.049 24.1314 18.5733C24.0002 19.0902 23.7513 19.6417 23.433 20.1139C23.1129 20.5887 22.7349 20.9656 22.3549 21.1556L22.2675 21.1993L22.2438 21.2941C21.8245 22.9713 21.4074 23.8055 20.9859 24.6483L20.9851 24.65L20.8532 24.9136L21.1451 24.9553C21.6327 25.025 22.3618 25.1712 22.9642 25.3812C23.2668 25.4866 23.5247 25.6039 23.7028 25.728C23.8902 25.8585 23.9371 25.9589 23.9371 26.0198V26.3636L24.2446 26.2098C24.4856 26.0893 24.7543 26.1517 25.0308 26.335C25.3055 26.517 25.5417 26.7912 25.6725 26.9875L25.7356 27.0821H25.8493C26.212 27.0821 26.6983 27.268 27.153 27.6216C27.6022 27.971 27.9977 28.467 28.1954 29.0557C28.1943 29.0618 28.19 29.0768 28.1742 29.1035C28.1425 29.1567 28.0803 29.2287 27.977 29.3184C27.7719 29.4967 27.4465 29.7097 27.0177 29.9495C26.1635 30.4274 24.94 30.9894 23.5573 31.5711C20.8334 32.7171 17.5165 33.9293 15.2541 34.709L5.13235 28.2311L6.35409 27.9256L6.4489 27.9019L6.4926 27.8145C6.5074 27.7849 6.56005 27.7196 6.66736 27.6312C6.7687 27.5477 6.90176 27.4576 7.05289 27.3745C7.36031 27.2056 7.71314 27.0821 8.00228 27.0821H8.13359L8.19232 26.9647C8.27561 26.7981 8.50685 26.5575 8.85795 26.2793C9.20023 26.008 9.62985 25.7213 10.0753 25.4593C10.5206 25.1973 10.9772 24.9627 11.3722 24.7944C11.7781 24.6214 12.0872 24.5325 12.2516 24.5325H12.464V24.3201C12.464 23.4599 12.4633 22.5914 12.0328 20.8691L11.9704 20.6197L11.7372 20.7279C11.2759 20.9419 10.714 20.7499 10.1411 20.2353C9.57812 19.7296 9.06825 18.9628 8.75309 18.1992C8.59595 17.8184 8.49007 17.4452 8.44849 17.1124C8.40658 16.7769 8.43205 16.4991 8.51937 16.2967C8.60241 16.1041 8.74435 15.9704 8.97304 15.9111C9.21323 15.8487 9.56557 15.8648 10.0621 16.0238ZM28.1957 29.0524C28.1958 29.0525 28.1958 29.053 28.1957 29.0539C28.1956 29.0528 28.1957 29.0523 28.1957 29.0524Z" stroke="url(#paint0_linear_1722_35329)" stroke-opacity="0.2" stroke-width="0.42493"/>
</g>
<rect x="0.5" y="0.5" width="33" height="33" rx="16.5" stroke="#858D99"/>
<defs>
<linearGradient id="paint0_linear_1722_35329" x1="16.5056" y1="6" x2="16.5056" y2="16.5248" gradientUnits="userSpaceOnUse">
<stop stop-color="#858D99"/>
<stop offset="1" stop-color="#858D99" stop-opacity="0"/>
</linearGradient>
<clipPath id="clip0_1722_35329">
<rect width="34" height="34" rx="17" fill="white"/>
</clipPath>
</defs>
</svg>
