<svg width="24" height="24" viewBox="0 0 24 24" fill="none" xmlns="http://www.w3.org/2000/svg">
<path d="M4 20L20 20C20.5523 20 21 19.5523 21 19L21 5C21 4.44771 20.5523 4 20 4L4 4C3.44772 4 3 4.44772 3 5L3 19C3 19.5523 3.44772 20 4 20Z" stroke="white" stroke-width="1.5" stroke-linecap="round" stroke-linejoin="round"/>
<path d="M16 16H13" stroke="white" stroke-width="1.5" stroke-linecap="round" stroke-linejoin="round"/>
<path d="M8.53033 11.4697C8.23744 11.1768 7.76256 11.1768 7.46967 11.4697C7.17678 11.7626 7.17678 12.2374 7.46967 12.5303L8.53033 11.4697ZM10 14L10.5303 14.5303C10.8232 14.2374 10.8232 13.7626 10.5303 13.4697L10 14ZM7.46967 15.4697C7.17678 15.7626 7.17678 16.2374 7.46967 16.5303C7.76256 16.8232 8.23744 16.8232 8.53033 16.5303L7.46967 15.4697ZM7.46967 12.5303L9.46967 14.5303L10.5303 13.4697L8.53033 11.4697L7.46967 12.5303ZM9.46967 13.4697L7.46967 15.4697L8.53033 16.5303L10.5303 14.5303L9.46967 13.4697Z" fill="white"/>
<path d="M21 6L3 6V5H21V6Z" stroke="white" stroke-width="1.5" stroke-linecap="round" stroke-linejoin="round"/>
</svg>
